<?xml version="1.0" encoding="UTF-8" standalone="no"?>
<!DOCTYPE svg PUBLIC "-//W3C//DTD SVG 1.1//EN"
 "http://www.w3.org/Graphics/SVG/1.1/DTD/svg11.dtd">
<!-- Generated by graphviz version 7.1.0 (20230122.1345)
 -->
<!-- Pages: 1 -->
<svg width="3567pt" height="544pt"
 viewBox="0.00 0.00 3567.00 544.40" xmlns="http://www.w3.org/2000/svg" xmlns:xlink="http://www.w3.org/1999/xlink">
<g id="graph0" class="graph" transform="scale(1 1) rotate(0) translate(4 540.4)">
<polygon fill="white" stroke="none" points="-4,4 -4,-540.4 3563,-540.4 3563,4 -4,4"/>
<!-- 0_degree -->
<g id="node1" class="node">
<title>0_degree</title>
<polygon fill="none" stroke="black" points="1726,-457.9 1726,-503.9 2517,-503.9 2517,-457.9 1726,-457.9"/>
<text text-anchor="middle" x="2121.5" y="-488.7" font-family="Times,serif" font-size="14.00">0_degree</text>
<polyline fill="none" stroke="black" points="1726,-480.9 2517,-480.9"/>
<text text-anchor="middle" x="2121.5" y="-465.7" font-family="Times,serif" font-size="14.00">lambda: e_modulus 0.063331tensile_yield_strength 0.260224tensile_strain_at_break 0.676444dtype: float64</text>
</g>
<!-- mechanical -->
<g id="node3" class="node">
<title>mechanical</title>
<polygon fill="none" stroke="black" points="974.5,-392.9 974.5,-438.9 1435.5,-438.9 1435.5,-392.9 974.5,-392.9"/>
<text text-anchor="middle" x="1205" y="-423.7" font-family="Times,serif" font-size="14.00">mechanical</text>
<polyline fill="none" stroke="black" points="974.5,-415.9 1435.5,-415.9"/>
<text text-anchor="middle" x="1205" y="-400.7" font-family="Times,serif" font-size="14.00">lambda: 0_degree 0.16666790_degree 0.833333dtype: float64</text>
</g>
<!-- 0_degree&#45;&gt;mechanical -->
<g id="edge6" class="edge">
<title>0_degree&#45;&gt;mechanical</title>
<path fill="none" stroke="black" d="M1797.12,-457.92C1681.71,-449.71 1553.83,-440.62 1446.62,-433"/>
<polygon fill="black" stroke="black" points="1447.05,-429.53 1436.83,-432.31 1446.55,-436.51 1447.05,-429.53"/>
</g>
<!-- resources -->
<g id="node2" class="node">
<title>resources</title>
<polygon fill="none" stroke="black" points="1691.5,-132.9 1691.5,-178.9 2551.5,-178.9 2551.5,-132.9 1691.5,-132.9"/>
<text text-anchor="middle" x="2121.5" y="-163.7" font-family="Times,serif" font-size="14.00">resources</text>
<polyline fill="none" stroke="black" points="1691.5,-155.9 2551.5,-155.9"/>
<text text-anchor="middle" x="2121.5" y="-140.7" font-family="Times,serif" font-size="14.00">Values: PLA_virgin 0.641352PLA_recycled 0.527709PLA_recycled_industrial 1.000000Name: resources, dtype: float64</text>
</g>
<!-- ecology -->
<g id="node8" class="node">
<title>ecology</title>
<polygon fill="none" stroke="black" points="882,-132.9 882,-178.9 1528,-178.9 1528,-132.9 882,-132.9"/>
<text text-anchor="middle" x="1205" y="-163.7" font-family="Times,serif" font-size="14.00">ecology</text>
<polyline fill="none" stroke="black" points="882,-155.9 1528,-155.9"/>
<text text-anchor="middle" x="1205" y="-140.7" font-family="Times,serif" font-size="14.00">lambda: human_health 0.700310resources 0.113266ecosystems 0.186424dtype: float64</text>
</g>
<!-- resources&#45;&gt;ecology -->
<g id="edge17" class="edge">
<title>resources&#45;&gt;ecology</title>
<path fill="none" stroke="black" d="M1691.7,-155.9C1640.45,-155.9 1588.71,-155.9 1539.09,-155.9"/>
<polygon fill="black" stroke="black" points="1539.38,-152.4 1529.38,-155.9 1539.38,-159.4 1539.38,-152.4"/>
</g>
<!-- meaningfulness -->
<g id="node14" class="node">
<title>meaningfulness</title>
<polygon fill="none" stroke="black" points="0,-180.9 0,-226.9 734,-226.9 734,-180.9 0,-180.9"/>
<text text-anchor="middle" x="367" y="-211.7" font-family="Times,serif" font-size="14.00">meaningfulness</text>
<polyline fill="none" stroke="black" points="0,-203.9 734,-203.9"/>
<text text-anchor="middle" x="367" y="-188.7" font-family="Times,serif" font-size="14.00">lambda: ecology 0.680029mechanical 0.170731process 0.042606economical 0.106633dtype: float64</text>
</g>
<!-- mechanical&#45;&gt;meaningfulness -->
<g id="edge7" class="edge">
<title>mechanical&#45;&gt;meaningfulness</title>
<path fill="none" stroke="black" d="M1113.34,-392.91C956.12,-353.04 633.97,-271.35 469.5,-229.64"/>
<polygon fill="black" stroke="black" points="470.44,-226.27 459.88,-227.2 468.71,-233.05 470.44,-226.27"/>
</g>
<!-- MFR -->
<g id="node4" class="node">
<title>MFR</title>
<polygon fill="none" stroke="black" points="1802.5,-327.9 1802.5,-373.9 2440.5,-373.9 2440.5,-327.9 1802.5,-327.9"/>
<text text-anchor="middle" x="2121.5" y="-358.7" font-family="Times,serif" font-size="14.00">MFR</text>
<polyline fill="none" stroke="black" points="1802.5,-350.9 2440.5,-350.9"/>
<text text-anchor="middle" x="2121.5" y="-335.7" font-family="Times,serif" font-size="14.00">Values: PLA_virgin 1PLA_recycled 0PLA_recycled_industrial 0Name: MFR, dtype: int64</text>
</g>
<!-- process -->
<g id="node7" class="node">
<title>process</title>
<polygon fill="none" stroke="black" points="935,-229.9 935,-275.9 1475,-275.9 1475,-229.9 935,-229.9"/>
<text text-anchor="middle" x="1205" y="-260.7" font-family="Times,serif" font-size="14.00">process</text>
<polyline fill="none" stroke="black" points="935,-252.9 1475,-252.9"/>
<text text-anchor="middle" x="1205" y="-237.7" font-family="Times,serif" font-size="14.00">lambda: diameter 0.653739ovality 0.274168MFR 0.072093dtype: float64</text>
</g>
<!-- MFR&#45;&gt;process -->
<g id="edge4" class="edge">
<title>MFR&#45;&gt;process</title>
<path fill="none" stroke="black" d="M1802.79,-330.66C1760.13,-327.17 1716.97,-323.25 1676,-318.9 1571.19,-307.78 1453.78,-291.3 1362.52,-277.58"/>
<polygon fill="black" stroke="black" points="1363.15,-274.14 1352.74,-276.11 1362.11,-281.06 1363.15,-274.14"/>
</g>
<!-- 90_degree -->
<g id="node5" class="node">
<title>90_degree</title>
<polygon fill="none" stroke="black" points="1726,-392.9 1726,-438.9 2517,-438.9 2517,-392.9 1726,-392.9"/>
<text text-anchor="middle" x="2121.5" y="-423.7" font-family="Times,serif" font-size="14.00">90_degree</text>
<polyline fill="none" stroke="black" points="1726,-415.9 2517,-415.9"/>
<text text-anchor="middle" x="2121.5" y="-400.7" font-family="Times,serif" font-size="14.00">lambda: e_modulus 0.063331tensile_yield_strength 0.260224tensile_strain_at_break 0.676444dtype: float64</text>
</g>
<!-- 90_degree&#45;&gt;mechanical -->
<g id="edge8" class="edge">
<title>90_degree&#45;&gt;mechanical</title>
<path fill="none" stroke="black" d="M1726.03,-415.9C1631.08,-415.9 1532.44,-415.9 1446.92,-415.9"/>
<polygon fill="black" stroke="black" points="1446.99,-412.4 1436.99,-415.9 1446.99,-419.4 1446.99,-412.4"/>
</g>
<!-- e_modulus -->
<g id="node6" class="node">
<title>e_modulus</title>
<polygon fill="none" stroke="black" points="2648,-489.9 2648,-535.9 3514,-535.9 3514,-489.9 2648,-489.9"/>
<text text-anchor="middle" x="3081" y="-520.7" font-family="Times,serif" font-size="14.00">e_modulus</text>
<polyline fill="none" stroke="black" points="2648,-512.9 3514,-512.9"/>
<text text-anchor="middle" x="3081" y="-497.7" font-family="Times,serif" font-size="14.00">Values: PLA_virgin 0.110921PLA_recycled 0.000000PLA_recycled_industrial 0.000000Name: e_modulus, dtype: float64</text>
</g>
<!-- e_modulus&#45;&gt;0_degree -->
<g id="edge12" class="edge">
<title>e_modulus&#45;&gt;0_degree</title>
<path fill="none" stroke="black" d="M2648.17,-498.47C2608.25,-497.13 2567.88,-495.79 2528.2,-494.46"/>
<polygon fill="black" stroke="black" points="2528.38,-490.96 2518.27,-494.13 2528.15,-497.96 2528.38,-490.96"/>
</g>
<!-- e_modulus&#45;&gt;90_degree -->
<g id="edge9" class="edge">
<title>e_modulus&#45;&gt;90_degree</title>
<path fill="none" stroke="black" d="M2648.19,-497.17C2632.75,-492.43 2617.64,-487.04 2603,-480.9 2583.26,-472.63 2586.71,-457.24 2567,-448.9 2554.21,-443.49 2541.02,-438.67 2527.57,-434.39"/>
<polygon fill="black" stroke="black" points="2528.75,-431.09 2518.16,-431.52 2526.7,-437.79 2528.75,-431.09"/>
</g>
<!-- process&#45;&gt;meaningfulness -->
<g id="edge3" class="edge">
<title>process&#45;&gt;meaningfulness</title>
<path fill="none" stroke="black" d="M935.17,-237.14C874.59,-233.59 809.19,-229.76 745.09,-226"/>
<polygon fill="black" stroke="black" points="745.68,-222.53 735.49,-225.44 745.27,-229.52 745.68,-222.53"/>
</g>
<!-- ecology&#45;&gt;meaningfulness -->
<g id="edge16" class="edge">
<title>ecology&#45;&gt;meaningfulness</title>
<path fill="none" stroke="black" d="M882.28,-174.37C837.43,-176.95 791.03,-179.61 745.28,-182.24"/>
<polygon fill="black" stroke="black" points="745.27,-178.73 735.49,-182.8 745.67,-185.72 745.27,-178.73"/>
</g>
<!-- economical -->
<g id="node9" class="node">
<title>economical</title>
<polygon fill="none" stroke="black" points="770,-67.9 770,-113.9 1640,-113.9 1640,-67.9 770,-67.9"/>
<text text-anchor="middle" x="1205" y="-98.7" font-family="Times,serif" font-size="14.00">economical</text>
<polyline fill="none" stroke="black" points="770,-90.9 1640,-90.9"/>
<text text-anchor="middle" x="1205" y="-75.7" font-family="Times,serif" font-size="14.00">Values: PLA_virgin 0.639423PLA_recycled 0.086219PLA_recycled_industrial 1.000000Name: economical, dtype: float64</text>
</g>
<!-- economical&#45;&gt;meaningfulness -->
<g id="edge5" class="edge">
<title>economical&#45;&gt;meaningfulness</title>
<path fill="none" stroke="black" d="M853.63,-113.88C825.29,-116.86 797.14,-120.18 770,-123.9 670.18,-137.58 557.8,-160.6 477.3,-178.44"/>
<polygon fill="black" stroke="black" points="476.63,-175.01 467.63,-180.6 478.15,-181.84 476.63,-175.01"/>
</g>
<!-- ecosystems -->
<g id="node10" class="node">
<title>ecosystems</title>
<polygon fill="none" stroke="black" points="1685,-67.9 1685,-113.9 2558,-113.9 2558,-67.9 1685,-67.9"/>
<text text-anchor="middle" x="2121.5" y="-98.7" font-family="Times,serif" font-size="14.00">ecosystems</text>
<polyline fill="none" stroke="black" points="1685,-90.9 2558,-90.9"/>
<text text-anchor="middle" x="2121.5" y="-75.7" font-family="Times,serif" font-size="14.00">Values: PLA_virgin 0.761560PLA_recycled 0.687108PLA_recycled_industrial 1.000000Name: ecosystems, dtype: float64</text>
</g>
<!-- ecosystems&#45;&gt;ecology -->
<g id="edge11" class="edge">
<title>ecosystems&#45;&gt;ecology</title>
<path fill="none" stroke="black" d="M1797.12,-113.89C1713.5,-119.83 1623.34,-126.24 1539.24,-132.22"/>
<polygon fill="black" stroke="black" points="1539.18,-128.71 1529.45,-132.91 1539.68,-135.69 1539.18,-128.71"/>
</g>
<!-- tensile_strain_at_break -->
<g id="node11" class="node">
<title>tensile_strain_at_break</title>
<polygon fill="none" stroke="black" points="2603,-424.9 2603,-470.9 3559,-470.9 3559,-424.9 2603,-424.9"/>
<text text-anchor="middle" x="3081" y="-455.7" font-family="Times,serif" font-size="14.00">tensile_strain_at_break</text>
<polyline fill="none" stroke="black" points="2603,-447.9 3559,-447.9"/>
<text text-anchor="middle" x="3081" y="-432.7" font-family="Times,serif" font-size="14.00">Values: PLA_virgin 0.316667PLA_recycled 0.716667PLA_recycled_industrial 0.716667Name: tensile_strain_at_break, dtype: float64</text>
</g>
<!-- tensile_strain_at_break&#45;&gt;0_degree -->
<g id="edge14" class="edge">
<title>tensile_strain_at_break&#45;&gt;0_degree</title>
<path fill="none" stroke="black" d="M2603,-464.34C2578.01,-465.2 2553.01,-466.06 2528.27,-466.92"/>
<polygon fill="black" stroke="black" points="2528.31,-463.41 2518.44,-467.25 2528.55,-470.41 2528.31,-463.41"/>
</g>
<!-- tensile_strain_at_break&#45;&gt;90_degree -->
<g id="edge18" class="edge">
<title>tensile_strain_at_break&#45;&gt;90_degree</title>
<path fill="none" stroke="black" d="M2603,-431.96C2578.01,-431.12 2553.01,-430.29 2528.27,-429.46"/>
<polygon fill="black" stroke="black" points="2528.55,-425.97 2518.44,-429.13 2528.32,-432.97 2528.55,-425.97"/>
</g>
<!-- diameter -->
<g id="node12" class="node">
<title>diameter</title>
<polygon fill="none" stroke="black" points="1694.5,-262.9 1694.5,-308.9 2548.5,-308.9 2548.5,-262.9 1694.5,-262.9"/>
<text text-anchor="middle" x="2121.5" y="-293.7" font-family="Times,serif" font-size="14.00">diameter</text>
<polyline fill="none" stroke="black" points="1694.5,-285.9 2548.5,-285.9"/>
<text text-anchor="middle" x="2121.5" y="-270.7" font-family="Times,serif" font-size="14.00">Values: PLA_virgin 0.887908PLA_recycled 0.744112PLA_recycled_industrial 0.744112Name: diameter, dtype: float64</text>
</g>
<!-- diameter&#45;&gt;process -->
<g id="edge13" class="edge">
<title>diameter&#45;&gt;process</title>
<path fill="none" stroke="black" d="M1694.71,-270.54C1624,-267.98 1552.28,-265.4 1486.36,-263.02"/>
<polygon fill="black" stroke="black" points="1486.61,-259.52 1476.49,-262.66 1486.36,-266.52 1486.61,-259.52"/>
</g>
<!-- human_health -->
<g id="node13" class="node">
<title>human_health</title>
<polygon fill="none" stroke="black" points="1676,-2.9 1676,-48.9 2567,-48.9 2567,-2.9 1676,-2.9"/>
<text text-anchor="middle" x="2121.5" y="-33.7" font-family="Times,serif" font-size="14.00">human_health</text>
<polyline fill="none" stroke="black" points="1676,-25.9 2567,-25.9"/>
<text text-anchor="middle" x="2121.5" y="-10.7" font-family="Times,serif" font-size="14.00">Values: PLA_virgin 0.786649PLA_recycled 0.671466PLA_recycled_industrial 1.000000Name: human_health, dtype: float64</text>
</g>
<!-- human_health&#45;&gt;ecology -->
<g id="edge1" class="edge">
<title>human_health&#45;&gt;ecology</title>
<path fill="none" stroke="black" d="M1977.9,-2.92C1884.85,4.52 1764.66,-0.87 1676,-57.9 1647.9,-75.98 1668.09,-105.8 1640,-123.9 1560.68,-175.02 1455.45,-183.88 1368.48,-179.54"/>
<polygon fill="black" stroke="black" points="1368.84,-176.06 1358.66,-178.98 1368.45,-183.05 1368.84,-176.06"/>
</g>
<!-- tensile_yield_strength -->
<g id="node15" class="node">
<title>tensile_yield_strength</title>
<polygon fill="none" stroke="black" points="2607,-359.9 2607,-405.9 3555,-405.9 3555,-359.9 2607,-359.9"/>
<text text-anchor="middle" x="3081" y="-390.7" font-family="Times,serif" font-size="14.00">tensile_yield_strength</text>
<polyline fill="none" stroke="black" points="2607,-382.9 3555,-382.9"/>
<text text-anchor="middle" x="3081" y="-367.7" font-family="Times,serif" font-size="14.00">Values: PLA_virgin 0.118868PLA_recycled 0.137736PLA_recycled_industrial 0.137736Name: tensile_yield_strength, dtype: float64</text>
</g>
<!-- tensile_yield_strength&#45;&gt;0_degree -->
<g id="edge15" class="edge">
<title>tensile_yield_strength&#45;&gt;0_degree</title>
<path fill="none" stroke="black" d="M2628.62,-405.83C2619.94,-408.95 2611.39,-412.3 2603,-415.9 2583.06,-424.46 2586.93,-440.31 2567,-448.9 2554.25,-454.4 2541.09,-459.28 2527.66,-463.61"/>
<polygon fill="black" stroke="black" points="2526.8,-460.21 2518.28,-466.52 2528.87,-466.9 2526.8,-460.21"/>
</g>
<!-- tensile_yield_strength&#45;&gt;90_degree -->
<g id="edge10" class="edge">
<title>tensile_yield_strength&#45;&gt;90_degree</title>
<path fill="none" stroke="black" d="M2607.21,-399.2C2580.71,-400.11 2554.19,-401.02 2527.96,-401.93"/>
<polygon fill="black" stroke="black" points="2528.13,-398.42 2518.25,-402.26 2528.37,-405.41 2528.13,-398.42"/>
</g>
<!-- ovality -->
<g id="node16" class="node">
<title>ovality</title>
<polygon fill="none" stroke="black" points="1703.5,-197.9 1703.5,-243.9 2539.5,-243.9 2539.5,-197.9 1703.5,-197.9"/>
<text text-anchor="middle" x="2121.5" y="-228.7" font-family="Times,serif" font-size="14.00">ovality</text>
<polyline fill="none" stroke="black" points="1703.5,-220.9 2539.5,-220.9"/>
<text text-anchor="middle" x="2121.5" y="-205.7" font-family="Times,serif" font-size="14.00">Values: PLA_virgin 0.127929PLA_recycled 0.225285PLA_recycled_industrial 0.225285Name: ovality, dtype: float64</text>
</g>
<!-- ovality&#45;&gt;process -->
<g id="edge2" class="edge">
<title>ovality&#45;&gt;process</title>
<path fill="none" stroke="black" d="M1703.73,-235.48C1630.07,-238.06 1555,-240.69 1486.24,-243.09"/>
<polygon fill="black" stroke="black" points="1486.2,-239.59 1476.33,-243.44 1486.45,-246.59 1486.2,-239.59"/>
</g>
</g>
</svg>
